<?xml version="1.0" encoding="UTF-8"?>
<svg xmlns="http://www.w3.org/2000/svg" viewBox="125 125 774 774" width="774" height="774">
  <path fill="#cba6f7" d="M 207 125 L 817 125 L 899 195 L 899 829 L 817 899 L 207 899 L 125 829 L 125 195 Z"/>
  <path fill="#1e1e2e" d="M 246 189 L 778 189 L 818 225 L 818 799 L 778 827 L 246 827 L 207 799 L 207 225 Z"/>
  <path fill="#cdd6f4" d="M 261 432 L 382 512 L 261 592 L 304 592 L 426 512 L 304 432 Z"/>
  <path fill="#cdd6f4" d="M 763 432 L 642 512 L 763 592 L 720 592 L 598 512 L 720 432 Z"/>
  <rect x="417" y="624" width="190" height="40" rx="6" fill="#cdd6f4"/>
</svg>
