<?xml version="1.0" encoding="UTF-8" standalone="no"?>
<svg xmlns="http://www.w3.org/2000/svg" viewBox="0 0 380 135" fill="currentColor" style="fill-rule:evenodd;clip-rule:evenodd;stroke-linejoin:round;stroke-miterlimit:1.41421;">
    <g transform="matrix(4.16667,0,0,4.16667,0,0)">
        <g transform="matrix(1,0,0,1,29.3553,28.2191)">
            <path d="M0,-23.419L0,-9.791L-9.023,-23.419L-13.697,-23.419L-13.697,-9.569L-22.839,-23.419L-29.355,-23.419L-13.697,0L-8.154,0L-8.154,-12.623L0.426,0L5.97,0L5.97,-23.419L0,-23.419Z" style="fill:currentColor;fill-rule:nonzero;"/>
        </g>
        <g transform="matrix(1,0,0,1,42.8962,10.0868)">
            <path d="M0,12.93L2.567,12.93C7.036,12.93 8.304,9.825 8.304,6.496C8.304,5.166 8.018,3.486 7.162,2.155C6.466,1.109 5.261,0 2.599,0L0,0L0,12.93ZM-5.99,-5.261L1.775,-5.261C4.406,-5.261 9.096,-5.261 12.139,-0.887C13.755,1.331 14.293,3.834 14.293,6.402C14.293,12.804 11.124,18.191 2.219,18.191L-5.99,18.191L-5.99,-5.261" style="fill:currentColor;fill-rule:nonzero;"/>
        </g>
        <g transform="matrix(1,0,0,1,57.9099,9.3764)">
            <path d="M0,14.325C2.086,12.58 4.143,10.838 6.197,9.094C8.625,7.07 10.213,5.669 10.213,3.178C10.213,1.341 9.154,0.593 7.754,0.593C5.729,0.593 5.418,2.554 5.387,4.236L-0.218,4.236C-0.156,2.742 -0.093,0.842 1.152,-1.057C3.114,-4.11 6.57,-4.576 8.251,-4.576C13.389,-4.576 16.098,-1.152 16.098,2.554C16.098,5.357 15.258,7.381 12.3,10.09C10.898,11.367 9.497,12.642 8.064,13.951L18.387,13.951L14.655,18.901L0,18.901L0,14.325" style="fill:currentColor;fill-rule:nonzero;"/>
        </g>
        <g transform="matrix(1,0,0,1,85.2243,19.964)">
            <path d="M0,-6.85C0,-8.936 -1.683,-9.995 -3.177,-9.995C-4.858,-9.995 -6.353,-8.749 -6.353,-6.912C-6.353,-5.418 -5.264,-3.767 -3.177,-3.767C-1.246,-3.767 0,-5.2 0,-6.819L0,-6.85ZM-8.875,8.314L-4.702,2.616C-4.392,2.18 -4.08,1.775 -3.801,1.371C-3.831,1.339 -4.546,1.433 -4.982,1.433C-8.346,1.433 -12.238,-1.152 -12.238,-6.383C-12.238,-11.645 -8.158,-15.164 -3.302,-15.164C-0.406,-15.164 2.272,-14.105 3.83,-12.05C5.293,-10.399 5.791,-8.033 5.791,-6.258C5.791,-3.923 4.825,-1.868 3.674,-0.093L-2.057,8.314L-8.875,8.314" style="fill:currentColor;fill-rule:nonzero;"/>
        </g>
    </g>
</svg>
