<?xml version="1.0" encoding="UTF-8"?>
<svg xmlns="http://www.w3.org/2000/svg" viewBox="0 0 1024 1024" width="1024" height="1024">
  <rect width="1024" height="1024" rx="224" fill="#2e3440"/>
  <path fill="#88c0d0" d="M 230 93 L 794 93 L 870 163 L 870 797 L 794 867 L 230 867 L 154 797 L 154 163 Z"/>
  <path fill="#2e3440" d="M 266 157 L 758 157 L 795 193 L 795 767 L 758 795 L 266 795 L 230 767 L 230 193 Z"/>
  <path fill="#eceff4" d="M 280 400 L 392 480 L 280 560 L 320 560 L 432 480 L 320 400 Z"/>
  <path fill="#eceff4" d="M 744 400 L 632 480 L 744 560 L 704 560 L 592 480 L 704 400 Z"/>
  <rect x="424" y="592" width="176" height="40" rx="6" fill="#eceff4"/>
</svg>
